<?xml version="1.0" encoding="UTF-8" standalone="no"?>
<!-- Created with Inkscape (http://www.inkscape.org/) -->

<svg
   xmlns:dc="http://purl.org/dc/elements/1.1/"
   xmlns:cc="http://creativecommons.org/ns#"
   xmlns:rdf="http://www.w3.org/1999/02/22-rdf-syntax-ns#"
   xmlns:svg="http://www.w3.org/2000/svg"
   xmlns="http://www.w3.org/2000/svg"
   xmlns:sodipodi="http://sodipodi.sourceforge.net/DTD/sodipodi-0.dtd"
   xmlns:inkscape="http://www.inkscape.org/namespaces/inkscape"
   width="210mm"
   height="297mm"
   viewBox="0 0 210 297"
   version="1.1"
   id="svg8"
   sodipodi:docname="f.svg"
   inkscape:version="0.92.3 (2405546, 2018-03-11)">
  <defs
     id="defs2" />
  <sodipodi:namedview
     id="base"
     pagecolor="#ffffff"
     bordercolor="#666666"
     borderopacity="1.0"
     inkscape:pageopacity="0.0"
     inkscape:pageshadow="2"
     inkscape:zoom="0.35"
     inkscape:cx="-144.28571"
     inkscape:cy="560"
     inkscape:document-units="mm"
     inkscape:current-layer="layer1"
     showgrid="false"
     inkscape:window-width="1256"
     inkscape:window-height="636"
     inkscape:window-x="298"
     inkscape:window-y="141"
     inkscape:window-maximized="0" />
  <metadata
     id="metadata5">
    <rdf:RDF>
      <cc:Work
         rdf:about="">
        <dc:format>image/svg+xml</dc:format>
        <dc:type
           rdf:resource="http://purl.org/dc/dcmitype/StillImage" />
        <dc:title></dc:title>
      </cc:Work>
    </rdf:RDF>
  </metadata>
  <g
     inkscape:label="Layer 1"
     inkscape:groupmode="layer"
     id="layer1">
    <path
       style="fill:none;stroke:#000000;stroke-width:0.26458332px;stroke-linecap:butt;stroke-linejoin:miter;stroke-opacity:1"
       d="m 36.285715,55.851189 c 3.023809,0 6.047618,0 9.071427,0 0.34045,0 2.037794,-0.11503 2.267857,0 0.318739,0.159369 0.437216,0.596585 0.755952,0.755954 0.198771,0.09939 2.628508,0 3.023809,0 2.267858,0 4.535715,0 6.803573,0 1.511905,0 3.023809,0 4.535715,0 0.251983,0 0.57777,-0.178181 0.755951,0 0.178181,0.178178 -0.178181,0.577771 0,0.755952 0.23408,0.234079 3.545684,-0.23408 3.779761,0 0.178181,0.178178 -0.178178,0.577773 0,0.755951 0.178181,0.178181 0.50397,0 0.755954,0 0.251984,0 0.503968,0 0.755952,0 1.511906,0 3.023809,0 4.535715,0 0.251984,0 0.503968,0 0.755951,0 0.251984,0 0.530572,-0.112691 0.755952,0 0.318738,0.159369 0.437216,0.596585 0.755954,0.755955 0.201459,0.100729 4.193725,0 4.535713,0 3.779763,0 7.559524,0 11.339287,0 1.259919,0 2.519841,0 3.779761,0 0.251984,0 0.503968,0 0.755951,0 0.251984,0 0.530572,-0.112692 0.755955,0 0.318735,0.159366 0.437213,0.596582 0.755951,0.755951 0.273378,0.136689 3.253964,0 3.779764,0 2.77182,0 5.54365,0 8.31547,0 0.5258,0 3.50639,-0.136689 3.77977,0 0.31873,0.159369 0.43721,0.596583 0.75595,0.755952 0.23006,0.11503 1.92741,0 2.26786,0 1.76388,0 3.52777,0 5.29166,0 0.25199,0 0.50397,0 0.75595,0 0.25199,0 0.57778,-0.178179 0.75596,0 0.17818,0.178181 -0.17818,0.577773 0,0.755951 0.0304,0.03042 2.74619,0 3.02381,0 0.27761,0 2.99338,-0.03042 3.02381,0 0.17817,0.178181 -0.17819,0.577774 0,0.755955 0.17817,0.178178 0.50396,0 0.75595,0 2.01587,0 4.03174,0 6.04762,0 0.18334,0 2.24354,-0.02432 2.26785,0 0.17818,0.178178 0.17818,0.57777 0,0.755951 -0.17818,0.178179 -0.50396,0 -0.75595,0 -1.5119,0 -3.02381,0 -4.53571,0 -3.02381,0 -6.04762,0 -9.07143,0 -0.6551,0 -2.58591,0.145968 -3.02381,0 -0.53454,-0.178181 -0.97737,-0.577773 -1.51191,-0.755951 -0.4781,-0.159369 -1.00793,0 -1.5119,0 -1.00794,0 -2.01587,0 -3.02381,0 -3.77976,0 -7.55952,0 -11.33929,0 -15.119044,0 -30.238089,0 -45.357137,0 -2.015874,0 -4.031748,0 -6.047619,0 -0.251983,0 -0.503967,0 -0.755954,0 -0.251984,0 -0.57777,-0.178181 -0.755951,0 -0.02432,0.02432 0,2.084517 0,2.267857 0,4.787696 0,9.575395 0,14.363094 0,5.291667 0,10.583333 0,15.875 0,0.183338 0.02432,2.243545 0,2.267857 -0.178179,0.178179 -0.577774,-0.178181 -0.755952,0 -0.03042,0.03042 0,2.746195 0,3.023809 0,2.519843 0,5.039683 0,7.559523 0,0.68139 0.158599,3.30397 0,3.77976 -0.178181,0.53454 -0.577773,0.97737 -0.755952,1.51191 -0.150251,0.45075 0,3.80329 0,4.53571 0,0.25199 0.112689,0.53057 0,0.75595 -0.159369,0.31874 -0.596585,0.43722 -0.755954,0.75596 -0.112689,0.22538 0,0.50396 0,0.75595 0,0.50397 0.159369,1.0338 0,1.5119 -0.112689,0.33808 -0.596582,0.43722 -0.755952,0.75596 -0.199863,0.39972 0.09207,2.65551 0,3.0238 -0.136657,0.54664 -0.577773,0.97737 -0.755951,1.51191 -0.237398,0.7122 0.24506,4.0456 0,4.53572 -0.159369,0.31873 -0.596585,0.43721 -0.755954,0.75595 -0.229516,0.45903 0.229515,4.07668 0,4.53571 -0.159367,0.31874 -0.596583,0.43722 -0.755952,0.75595 -0.229516,0.45903 0.229515,4.07669 0,4.53572 -0.159369,0.31873 -0.596583,0.43721 -0.755952,0.75595 -0.241535,0.48307 0.202822,2.41534 0,3.02381 -0.178181,0.53454 -0.577773,0.97736 -0.755951,1.51191 -0.211416,0.63424 0.213571,3.35261 0,3.77976 -0.159369,0.31873 -0.596585,0.43721 -0.755955,0.75595 -0.241098,0.4822 0.202102,3.57766 0,3.77976 -0.178178,0.17818 -0.57777,-0.17818 -0.755951,0 -7.94e-4,7.9e-4 0.0011,2.26443 0,2.26786 -0.112692,0.33807 -0.596583,0.43721 -0.755952,0.75595 -0.136689,0.27338 0,3.25397 0,3.77976 0,0.25198 0.178179,0.57777 0,0.75596 -0.178181,0.17817 -0.577773,-0.17819 -0.755954,0 -0.178178,0.17817 0,0.50396 0,0.75595 0,0.53582 0.09773,4.34026 0,4.53571 -0.159367,0.31874 -0.596583,0.43722 -0.755952,0.75595 -0.136689,0.27338 0,3.25397 0,3.77976 0,0.25199 0.178181,0.57778 0,0.75596 -0.178178,0.17818 -0.577773,-0.17818 -0.755951,0 -0.154546,0.15454 0.149865,1.96813 0,2.26786 -0.159369,0.31873 -0.596585,0.43721 -0.755952,0.75595 -0.09773,0.19545 0,3.99989 0,4.53571 0,0.25199 0.178178,0.57777 0,0.75595 -0.178181,0.17818 -0.577773,-0.17818 -0.755954,0 -0.03426,0.0343 0,3.42334 0,3.77976 0,0.5258 0.136689,3.50639 0,3.77977 -0.159369,0.31873 -0.64326,0.41788 -0.755952,0.75595 -0.239053,0.71716 0,1.51191 0,2.26786 0,1.25992 0,2.51984 0,3.77976 0,0.25198 0,0.50397 0,0.75595 0,0.25199 0.112692,0.53057 0,0.75595 -0.159369,0.31874 -0.596582,0.43722 -0.755951,0.75596 -0.09939,0.19877 0,2.6285 0,3.0238 0,2.26786 0,4.53572 0,6.80358 0,1.25992 0,2.51984 0,3.77976 0,0.25198 0,0.50397 0,0.75595 0,0.25199 0.112688,0.53057 0,0.75595 -0.15937,0.31874 -0.596586,0.43722 -0.755955,0.75596 -0.112688,0.22538 0,0.50396 0,0.75595 0,0.25198 0,0.50397 0,0.75595 0,0.50397 0,1.00794 0,1.5119 0,0.25199 0.251987,0.75596 0,0.75596 -0.251984,0 0.178181,-0.57777 0,-0.75596 -0.178178,-0.17817 -0.57777,0.17819 -0.755951,0 -0.178179,-0.17817 0,-0.50396 0,-0.75595 0,-0.25198 0,-0.50397 0,-0.75595 0,-4.03175 0,-8.06349 0,-12.09524 0,-0.75595 -0.183346,-1.53447 0,-2.26786 0.136657,-0.54662 0.619294,-0.96527 0.755951,-1.5119 0.187344,-0.74937 -0.223128,-3.11037 0,-3.77976 0.178181,-0.53454 0.577774,-0.97737 0.755955,-1.51191 0.226785,-0.68035 -0.226788,-1.5875 0,-2.26785 0.112688,-0.33808 0.596582,-0.43722 0.755951,-0.75595 0.229516,-0.45904 -0.229515,-4.07669 0,-4.53572 0.159369,-0.31874 0.596583,-0.43722 0.755952,-0.75595 0.114919,-0.22984 0,-2.50181 0,-3.02381 0,-0.39531 -0.09939,-2.82504 0,-3.02381 0.159369,-0.31874 0.669523,-0.41023 0.755954,-0.75595 0.166846,-0.6674 0,-3.48944 0,-4.53572 0,-0.73118 -0.112104,-4.31151 0,-4.53571 0.159367,-0.31874 0.596583,-0.43722 0.755952,-0.75596 0.238453,-0.4769 -0.238453,-3.30285 0,-3.77976 0.159369,-0.31873 0.596582,-0.43721 0.755951,-0.75595 0.136689,-0.27338 0,-3.25396 0,-3.77976 0,-0.50397 -0.159369,-1.0338 0,-1.5119 0.178181,-0.53454 0.577774,-0.97737 0.755952,-1.51191 0.158599,-0.47579 0,-3.09837 0,-3.77976 0,-0.25199 -0.178178,-0.57777 0,-0.75595 0.178181,-0.17818 0.577773,0.17818 0.755954,0 0.178179,-0.17818 0,-0.50397 0,-0.75596 0,-0.35643 -0.03426,-3.7455 0,-3.77976 0.178179,-0.17818 0.577771,0.17818 0.755952,0 0.356359,-0.35636 -0.35636,-1.15554 0,-1.5119 0.178181,-0.17818 0.577773,0.17818 0.755951,0 0.35636,-0.35636 -0.356359,-1.15555 0,-1.51191 0.178181,-0.17818 0.577774,0.17818 0.755955,0 0.178178,-0.17818 -0.178181,-0.57777 0,-0.75595 0.178178,-0.17818 0.57777,0.17818 0.755951,0 0.35636,-0.35636 -0.356359,-1.15554 0,-1.5119 0.178179,-0.17818 0.577774,0.17817 0.755952,0 0.178181,-0.17818 -0.178178,-0.57778 0,-0.75596 0.178181,-0.17818 0.577773,0.17818 0.755952,0 0.178181,-0.17818 -0.178179,-0.57777 0,-0.75595 0.178181,-0.17818 0.577773,0.17818 0.755954,0 0.178178,-0.17818 -0.178181,-0.57777 0,-0.75595 0.178178,-0.17818 0.57777,0.17818 0.755951,0 0.178181,-0.17818 -0.178181,-0.57777 0,-0.75596 0.178181,-0.17817 0.577774,0.17819 0.755952,0 0.178181,-0.17817 -0.178178,-0.57777 0,-0.75595 0.356359,-0.35636 1.061143,0.22539 1.511906,0 2.507178,-2.50718 -0.712719,0.35636 1.511903,-0.75595 0.318738,-0.15937 0.437216,-0.59658 0.755954,-0.75595 0.450763,-0.22538 1.155544,0.35636 1.511904,0 0.178181,-0.17818 -0.178179,-0.57777 0,-0.75595 0.181906,-0.18191 2.841905,0.1819 3.023809,0 0.178181,-0.17818 -0.178179,-0.57778 0,-0.75596 0.03426,-0.0343 3.423332,0 3.779763,0 0.251984,0 0.577773,0.17818 0.755952,0 0.178181,-0.17818 -0.178179,-0.57777 0,-0.75595 0.178181,-0.17818 0.503967,0 0.755951,0 0.251987,0 0.503971,0 0.755955,0 2.015871,0 4.031744,0 6.047618,0 0.356431,0 3.7455,-0.0343 3.779761,0 0.178181,0.17818 -0.178179,0.57777 0,0.75595 0.03042,0.0304 2.746197,0 3.023811,0 6.551586,0 13.103175,0 19.654761,0 2.015873,0 4.031747,0 6.047621,0 0.25198,0 0.57777,-0.17818 0.75595,0 0.17818,0.17818 0,0.50397 0,0.75596"
       id="path14"
       inkscape:connector-curvature="0" />
  </g>
</svg>
